<?xml version="1.0" encoding="UTF-8"?>
<svg width="802" height="601" version="1.1" viewBox="0 0 212.2 159.01"
  xmlns="http://www.w3.org/2000/svg"
  xmlns:xlink="http://www.w3.org/1999/xlink">
  <style type="text/css">
    tspan {
      fill: #333;
      font-family: "Franklin Gothic", "Franklin Gothic Medium", "Source Sans Pro", sans-serif;
    }

    .tree tspan {
      font-size: 3.506px;
      line-height: 151%;
    }

    rect {
      stroke-linejoin: round;
      stroke-miterlimit: 4;
      stroke-width: 0.13229135;
    }

    .actions tspan {
      font-size: 2.9435px;
      line-height: 552%;
    }

    .form {
      font-size: 3.605px;
      line-height: 274%;
    }

    .form .fields rect {
      stroke: #ddd;
    }

    .form .values {
      font-size: 3.6049px;
    }

    .form .save {
      font-size: 3.9687px;
    }

    .blue-icon use {
      fill: #266d9c;
    }

    .yellow-icon use {
      fill: #d8ae5a;
    }

    .grey-icon use {
      fill: #81807f;
    }

    .action-bg use {
      fill: #f9f8f7;
      stroke: #bbbbbb;
      cursor:pointer
    }

    tspan {
      font-size: 3.74988413px;
      line-height: 1.25;
      color: #e6e6;
    }

    .header-footer rect {
      stroke: none;
    }

    .svg-menu-bg {
      fill: none; 
    }

    #menu .menu-item { 
      cursor: pointer; 
    }

    #menu .menu-item:hover:not(.active) rect {
      opacity: .5 
    }

    #menu tspan {
      font-size:3.4727px;
    }

    .top-action-item {
      cursor: pointer;
    }

    .top-action-item rect {
      cursor: pointer
    }

    .top-action-item.active rect, 
    .top-action-item:hover rect {
      stroke: #e6e6e6;
      stroke-opacity: .8;
    }


    #action-bars g rect {
      fill: none;
    }

    /** Elements that can be styled with JS */

    /** header footer bg */
    .svg-dark-bar {
      fill: #333;
    }

    .svg-menu-active-bg {
      fill: #1a6597;
    }

    .svg-menu-active-fg {
      fill: #fff;
    }

    .svg-action-bar {
      fill: #1a6597;
    }

    .svg-footer-fg,
    .svg-menu-fg {
      fill:#e6e6e6;
    }

    .svg-menu-bg:hover {
      fill: #1a6597;
    }

    .svg-action-fg {
      fill:#e6e6e6;
    }

    :hover .svg-action-fg {
      fill: #fff;
    }


  </style>
  <defs>
    <symbol id="icon-edit" viewBox="0 0 32 32">
      <path d="M6.482 27.429l1.625-1.625-4.196-4.196-1.625 1.625v1.911h2.286v2.286h1.911zM15.821 10.857q0-0.393-0.393-0.393-0.179 0-0.304 0.125l-9.679 9.679q-0.125 0.125-0.125 0.304 0 0.393 0.393 0.393 0.179 0 0.304-0.125l9.679-9.679q0.125-0.125 0.125-0.304zM14.857 7.429l7.429 7.429-14.857 14.857h-7.429v-7.429zM27.054 9.143q0 0.946-0.661 1.607l-2.964 2.964-7.429-7.429 2.964-2.946q0.643-0.679 1.607-0.679 0.946 0 1.625 0.679l4.196 4.179q0.661 0.696 0.661 1.625z"/>
    </symbol>
    <symbol id="icon-preview" viewBox="0 0 32 32">
      <path d="M29.714 17.143q-2.714-4.214-6.804-6.304 1.089 1.857 1.089 4.018 0 3.304-2.348 5.652t-5.652 2.348-5.652-2.348-2.348-5.652q0-2.161 1.089-4.018-4.089 2.089-6.804 6.304 2.375 3.661 5.955 5.83t7.759 2.17 7.759-2.17 5.955-5.83zM16.857 10.286q0-0.357-0.25-0.607t-0.607-0.25q-2.232 0-3.83 1.598t-1.598 3.83q0 0.357 0.25 0.607t0.607 0.25 0.607-0.25 0.25-0.607q0-1.536 1.089-2.625t2.625-1.089q0.357 0 0.607-0.25t0.25-0.607zM32 17.143q0 0.607-0.357 1.232-2.5 4.107-6.723 6.58t-8.92 2.473-8.92-2.482-6.723-6.571q-0.357-0.625-0.357-1.232t0.357-1.232q2.5-4.089 6.723-6.571t8.92-2.482 8.92 2.482 6.723 6.571q0.357 0.625 0.357 1.232z"/>
    </symbol>
    <symbol id="icon-translate" viewBox="0 0 32 32">
      <path d="M30.444 11.204h-19.821c-0.77 0-1.395 0.625-1.395 1.395v13.127c0 0.77 0.625 1.395 1.395 1.395h3.131v4.878l6.779-4.878h9.91c0.77 0 1.395-0.625 1.395-1.395v-13.127c0-0.77-0.625-1.395-1.395-1.395z"/>
      <path  d="M19.668 2.562c0-0.665-0.539-1.205-1.205-1.205h-17.117c-0.665 0-1.205 0.539-1.205 1.205v9.168c0 0.665 0.539 1.205 1.205 1.205h0.462v4.893l4.913-4.893h-0.017v-2.688c0-0.911 0.738-1.649 1.649-1.649h11.314v-6.036z"/>
    </symbol>
    <symbol id="icon-item" viewBox="0 0 32 32">
      <path d="m24.015 7.179c-0.085-0.085-0.195-0.128-0.328-0.128h-7.242c-0.133 0-0.242 0.043-0.328 0.128s-0.128 0.195-0.128 0.327v1.139c0 0.133 0.043 0.242 0.128 0.328s0.195 0.128 0.328 0.128h7.242c0.133 0 0.242-0.043 0.328-0.128s0.128-0.195 0.128-0.328v-1.139c0-0.133-0.043-0.242-0.128-0.327z"/>
      <path d="m24.015 15.055c-0.085-0.085-0.195-0.128-0.328-0.128h-7.242c-0.133 0-0.242 0.043-0.328 0.128s-0.128 0.195-0.128 0.328v1.139c0 0.133 0.043 0.242 0.128 0.328s0.195 0.128 0.328 0.128h7.242c0.133 0 0.242-0.043 0.328-0.128s0.128-0.195 0.128-0.328v-1.139c0-0.133-0.043-0.242-0.128-0.328z"/>
      <path d="m24.015 22.976c-0.085-0.085-0.195-0.128-0.328-0.128h-7.242c-0.133 0-0.242 0.043-0.328 0.128s-0.128 0.195-0.128 0.328v1.139c0 0.133 0.043 0.242 0.128 0.328s0.195 0.128 0.328 0.128h7.242c0.133 0 0.242-0.043 0.328-0.128s0.128-0.195 0.128-0.328v-1.139c0-0.133-0.043-0.242-0.128-0.328z"/>
      <path d="m14.103 5.287c-0.316-0.316-0.702-0.476-1.148-0.476h-3.285c-0.446 0-0.832 0.16-1.148 0.476s-0.476 0.702-0.476 1.148v3.285c0 0.446 0.16 0.832 0.476 1.148s0.702 0.476 1.148 0.476h3.285c0.446 0 0.832-0.16 1.148-0.476s0.476-0.702 0.476-1.148v-3.285c0-0.446-0.16-0.832-0.476-1.148zm-4.578 1.148c0-0.045 0.01-0.069 0.043-0.102s0.057-0.043 0.102-0.043h3.285c0.045 0 0.069 0.01 0.102 0.043s0.043 0.057 0.043 0.102v3.285c0 0.045-0.01 0.069-0.043 0.102s-0.057 0.043-0.102 0.043h-3.285c-0.045 0-0.069-0.01-0.102-0.043s-0.043-0.057-0.043-0.102v-3.285z"/>
      <path d="m12.955 12.685h-3.285c-0.446 0-0.832 0.16-1.148 0.476s-0.476 0.702-0.476 1.148v3.285c0 0.446 0.16 0.832 0.476 1.148s0.702 0.476 1.148 0.476h3.285c0.446 0 0.832-0.16 1.148-0.476s0.476-0.702 0.476-1.148v-3.285c0-0.446-0.16-0.832-0.476-1.148s-0.702-0.476-1.148-0.476zm-3.43 1.624c0-0.045 0.01-0.069 0.043-0.102s0.057-0.043 0.102-0.043h3.285c0.045 0 0.069 0.01 0.102 0.043s0.043 0.057 0.043 0.102v3.285c0 0.045-0.01 0.069-0.043 0.102s-0.057 0.043-0.102 0.043h-3.285c-0.045 0-0.069-0.01-0.102-0.043s-0.043-0.057-0.043-0.102v-3.285z"/>
      <path d="m12.955 20.607h-3.285c-0.446 0-0.832 0.16-1.148 0.476s-0.476 0.702-0.476 1.148v3.285c0 0.446 0.16 0.832 0.476 1.148s0.702 0.476 1.148 0.476h3.285c0.446 0 0.832-0.16 1.148-0.476s0.476-0.702 0.476-1.148v-3.285c0-0.446-0.16-0.832-0.476-1.148s-0.702-0.476-1.148-0.476zm-3.43 1.624c0-0.045 0.01-0.069 0.043-0.102s0.057-0.043 0.102-0.043h3.285c0.045 0 0.069 0.01 0.102 0.043s0.043 0.057 0.043 0.102v3.285c0 0.045-0.01 0.069-0.043 0.102s-0.057 0.043-0.102 0.043h-3.285c-0.045 0-0.069-0.01-0.102-0.043s-0.043-0.057-0.043-0.102v-3.285z"/>
      <path d="m26.628 30.426h-21.09c-0.743 0-1.348-0.598-1.348-1.333v-26.15c0-0.735 0.605-1.333 1.348-1.333h21.09c0.743 0 1.348 0.598 1.348 1.333v26.15c0 0.735-0.605 1.333-1.348 1.333zm-20.562-1.875h20.035v-25.065h-20.035v25.065z"/>
    </symbol>
    <symbol id="icon-test" viewBox="0 0 32 32">
      <path d="m19.973 5.475c-0.085-0.085-0.195-0.128-0.328-0.128h-7.242c-0.133 0-0.242 0.043-0.328 0.128s-0.128 0.195-0.128 0.327v1.139c0 0.133 0.043 0.242 0.128 0.328s0.195 0.128 0.328 0.128h7.242c0.133 0 0.242-0.043 0.328-0.128s0.128-0.195 0.128-0.328v-1.139c0-0.133-0.043-0.242-0.128-0.327z"/>
      <path d="m19.973 13.163c-0.085-0.085-0.195-0.128-0.328-0.128h-7.242c-0.133 0-0.242 0.043-0.328 0.128s-0.128 0.195-0.128 0.328v1.139c0 0.133 0.043 0.242 0.128 0.328s0.195 0.128 0.328 0.128h7.242c0.133 0 0.242-0.043 0.328-0.128s0.128-0.195 0.128-0.328v-1.139c0-0.133-0.043-0.242-0.128-0.328z"/>
      <path d="m19.973 20.897c-0.085-0.085-0.195-0.128-0.328-0.128h-7.242c-0.133 0-0.242 0.043-0.328 0.128s-0.128 0.195-0.128 0.328v1.139c0 0.133 0.043 0.242 0.128 0.328s0.195 0.128 0.328 0.128h7.242c0.133 0 0.242-0.043 0.328-0.128s0.128-0.195 0.128-0.328v-1.139c0-0.133-0.043-0.242-0.128-0.328z"/>
      <path d="m10.061 3.582c-0.316-0.316-0.702-0.476-1.148-0.476h-3.285c-0.446 0-0.832 0.16-1.148 0.476s-0.476 0.702-0.476 1.148v3.285c0 0.446 0.16 0.832 0.476 1.148s0.702 0.476 1.148 0.476h3.285c0.446 0 0.832-0.16 1.148-0.476s0.476-0.702 0.476-1.148v-3.285c0-0.446-0.16-0.832-0.476-1.148zm-4.578 1.148c0-0.045 0.01-0.069 0.043-0.102s0.057-0.043 0.102-0.043h3.285c0.045 0 0.069 0.01 0.102 0.043s0.043 0.057 0.043 0.102v3.285c0 0.045-0.01 0.069-0.043 0.102s-0.057 0.043-0.102 0.043h-3.285c-0.045 0-0.069-0.01-0.102-0.043s-0.043-0.057-0.043-0.102v-3.285z"/>
      <path d="m8.913 10.793h-3.285c-0.446 0-0.832 0.16-1.148 0.476s-0.476 0.702-0.476 1.148v3.285c0 0.446 0.16 0.832 0.476 1.148s0.702 0.476 1.148 0.476h3.285c0.446 0 0.832-0.16 1.148-0.476s0.476-0.702 0.476-1.148v-3.285c0-0.446-0.16-0.832-0.476-1.148s-0.702-0.476-1.148-0.476zm-3.43 1.624c0-0.045 0.01-0.069 0.043-0.102s0.057-0.043 0.102-0.043h3.285c0.045 0 0.069 0.01 0.102 0.043s0.043 0.057 0.043 0.102v3.285c0 0.045-0.01 0.069-0.043 0.102s-0.057 0.043-0.102 0.043h-3.285c-0.045 0-0.069-0.01-0.102-0.043s-0.043-0.057-0.043-0.102v-3.285z"/>
      <path d="m8.913 18.527h-3.285c-0.446 0-0.832 0.16-1.148 0.476s-0.476 0.702-0.476 1.148v3.285c0 0.446 0.16 0.832 0.476 1.148s0.702 0.476 1.148 0.476h3.285c0.446 0 0.832-0.16 1.148-0.476s0.476-0.702 0.476-1.148v-3.285c0-0.446-0.16-0.832-0.476-1.148s-0.702-0.476-1.148-0.476zm-3.43 1.624c0-0.045 0.01-0.069 0.043-0.102s0.057-0.043 0.102-0.043h3.285c0.045 0 0.069 0.01 0.102 0.043s0.043 0.057 0.043 0.102v3.285c0 0.045-0.01 0.069-0.043 0.102s-0.057 0.043-0.102 0.043h-3.285c-0.045 0-0.069-0.01-0.102-0.043s-0.043-0.057-0.043-0.102v-3.285z"/>
      <path d="m26.57 3.828h-2.635v-2.496c0-0.735-0.605-1.333-1.348-1.333h-21.09c-0.743 0-1.348 0.598-1.348 1.333v25.507c0 0.735 0.605 1.333 1.348 1.333h2.635v2.496c0 0.735 0.605 1.333 1.348 1.333h21.09c0.743 0 1.348-0.598 1.348-1.333v-25.507c0-0.735-0.605-1.333-1.348-1.333zm-24.546-1.953h20.035v24.422h-20.035v-24.422zm24.018 28.25h-20.035v-1.953h16.579c0.743 0 1.348-0.598 1.348-1.333v-21.136h2.108v24.422z"/>
    </symbol>
    <symbol id="icon-test-taker" viewBox="0 0 32 32">
      <path d="m28.997 26.486c-0.973-0.576-2.338-1.202-3.973-1.825h0.015l-0.665-0.242c-1.774-0.646-3.034-1.182-3.832-1.853-0.747-0.629-1.085-1.384-1.128-2.526l-0.014-0.36-0.212 0.29c-9e-3 0.013-0.968 1.291-3.111 1.291-2.136 0-3.102-1.261-3.111-1.274l-0.211-0.285-0.014 0.354c-0.046 1.136-0.384 1.889-1.133 2.515-0.798 0.668-2.055 1.202-3.826 1.847-1.925 0.7-3.524 1.415-4.624 2.066-1.186 0.702-1.787 1.323-1.787 1.846v3.39h29.413v-3.39c0-0.523-0.601-1.143-1.787-1.845zm-25.785 3.394v-1.193c0.327-0.297 1.542-1.208 5.2-2.539 2.478-0.902 4.46-1.73 5.462-3.412 0.682 0.242 1.423 0.365 2.203 0.365s1.522-0.124 2.203-0.369c1.001 1.681 2.969 2.505 5.428 3.402 0.011 4e-3 0.022 8e-3 0.034 0.013 3.657 1.333 4.873 2.244 5.201 2.541v1.192h-25.731z"/>
      <path d="m22.293 8.825c0.037-0.405 3e-3 -0.921-0.137-1.476l1e-3 -0.158 5.327-2.042-11.313-4.879-11.385 4.879 2.094 0.783v4.949h-0.244c-0.176 0-0.319 0.167-0.319 0.373v3.766c0 0.206 0.143 0.373 0.319 0.373h1.753c0.176 0 0.319-0.167 0.319-0.373v-3.765c0-0.206-0.143-0.373-0.319-0.373h-0.258v-4.482l1.835 0.686 5e-3 0.336c-0.126 0.528-0.155 1.018-0.118 1.406 0.063 0.669 0.185 1.449 0.268 1.942-0.238 0.337-0.414 0.814-0.414 1.437 0 0.023 1e-3 0.047 3e-3 0.07 0.058 0.773 0.201 1.321 0.449 1.725 0.267 0.433 0.607 0.62 0.815 0.722 0.292 1.491 0.82 2.09 1.172 2.489 0.119 0.135 0.187 0.214 0.21 0.275 0.02 0.051 0.044 0.101 0.072 0.148 0.048 0.08 1.201 1.958 3.645 1.958 2.448 0 3.626-1.947 3.675-2.03 0.017-0.029 0.033-0.059 0.047-0.09 0.028-0.062 0.106-0.15 0.205-0.262 0.352-0.399 0.881-0.999 1.171-2.489 0.209-0.102 0.549-0.288 0.816-0.721 0.249-0.404 0.392-0.952 0.451-1.725 2e-3 -0.024 3e-3 -0.047 3e-3 -0.071 0-0.621-0.175-1.098-0.413-1.436 0.083-0.493 0.205-1.274 0.268-1.944zm-1.903 4.191c-0.019 0.011-0.054 0.027-0.08 0.04-0.263 0.126-0.81 0.389-0.968 1.243-0.193 1.041-0.476 1.362-0.75 1.673-0.157 0.178-0.334 0.379-0.473 0.659-0.12 0.178-0.794 1.088-2.047 1.088-1.212 0-1.864-0.804-2.011-1.01-0.145-0.322-0.346-0.55-0.51-0.737-0.274-0.311-0.557-0.632-0.75-1.673-0.158-0.854-0.705-1.117-0.967-1.243-0.027-0.013-0.061-0.029-0.08-0.04-0.025-0.042-0.124-0.243-0.172-0.843 4e-3 -0.178 0.038-0.267 0.055-0.3 0.315-0.204 0.483-0.581 0.413-0.958-2e-3 -0.01-0.138-0.747-0.243-1.524 1.866 0.561 4.991 1.095 8.531 0.028-0.105 0.766-0.238 1.486-0.24 1.495-0.07 0.377 0.097 0.753 0.411 0.957 0.017 0.033 0.052 0.122 0.056 0.301-0.049 0.6-0.148 0.801-0.173 0.843z"/>
    </symbol>
    <symbol id="icon-test-takers" viewBox="0 0 32 32">
      <path d="m23.813 29.5v1.701h8.159l-1e-3 -0.079c-3e-3 -0.246-0.066-6.037-0.441-6.67-0.55-0.933-1.746-1.551-4.217-2.584-1.041-0.435-1.837-0.824-2.338-1.309-0.465-0.45-0.679-0.98-0.715-1.772l-0.01-0.209-0.13 0.165c-5e-3 6e-3 -0.507 0.621-1.991 0.621-1.474-0-1.836-0.633-1.839-0.639l-0.136-0.258-0.012 0.291c-0.026 0.645-0.35 2.213-2.809 2.828l-0.213 0.053 2.158 1.011c0.506-0.227 1.391-1.047 1.427-1.081l4e-3 -5e-3c0.162-0.18 0.309-0.372 0.439-0.573 0.305 0.052 0.635 0.078 0.98 0.078 0.354 0 0.695-0.026 1.014-0.079 0.729 1.212 2.077 1.851 3.512 2.451 1.433 0.599 2.869 1.229 3.326 1.768 0.101 0.569 0.2 2.238 0.253 4.286l-6.422 5e-3z"/>
      <path d="m20.513 24.728c-1.12-0.69-2.702-1.382-4.103-1.968-1.333-0.556-2.327-0.99-2.986-1.514-0.639-0.508-0.958-1.103-1.064-1.99l-0.041-0.219-0.108 0.197c-1e-3 3e-3 -0.124 0.275-0.492 0.544-0.341 0.249-0.969 0.546-2.022 0.546-2.019 0-2.688-1.118-2.694-1.129l-0.118-0.207-0.027 0.237c-0.103 0.898-0.419 1.499-1.058 2.01-0.66 0.528-1.702 0.984-2.996 1.524-0.053 0.022-0.109 0.045-0.167 0.069-0.501 0.207-1.125 0.464-1.638 0.854-0.61 0.463-0.919 1.021-0.919 1.658v5.86h22.203v-4.412c0-0.654-0.579-1.328-1.769-2.061zm-18.729 0.612c0-0.028 0-0.114 0.245-0.3 0.336-0.256 0.845-0.465 1.256-0.635 0.06-0.025 0.118-0.049 0.174-0.072 1.78-0.744 3.32-1.387 4.239-2.625 0.602 0.213 1.274 0.321 1.997 0.321 0.671 0 1.293-0.094 1.849-0.278 0.921 1.21 2.446 1.846 4.207 2.581 1.161 0.486 2.483 1.058 3.484 1.622 0.935 0.526 1.25 0.859 1.34 0.973v2.567h-18.793v-4.155z"/>
      <path d="m14.996 8.739c0.033-0.399-2e-3 -0.914-0.141-1.465l1e-3 -0.252 3.877-1.59-8.936-3.968-9.066 4.144 1.47 0.563v4.35c0 5e-3 1e-3 0.01 1e-3 0.015h-0.155c-0.141 0-0.256 0.134-0.256 0.3v3.025c0 0.165 0.115 0.299 0.256 0.299h1.408c0.141 0 0.256-0.134 0.256-0.299v-3.025c0-0.165-0.115-0.3-0.256-0.3h-0.197c0-5e-3 1e-3 -0.01 1e-3 -0.015v-3.944l1.364 0.523 3e-3 0.182c-0.138 0.549-0.172 1.061-0.138 1.458 0.056 0.65 0.167 1.42 0.232 1.841-0.237 0.35-0.357 0.796-0.357 1.326 0 0.021 1e-3 0.041 2e-3 0.061 0.099 1.443 0.483 1.935 1.072 2.251 0.244 1.4 0.693 1.959 0.991 2.33 0.108 0.135 0.166 0.209 0.19 0.277 0.015 0.044 0.034 0.088 0.057 0.129 0.04 0.074 1.008 1.805 3.067 1.805 2.06 0 3.051-1.795 3.092-1.872 0.014-0.025 0.026-0.052 0.037-0.078 0.026-0.063 0.084-0.137 0.184-0.261 0.298-0.371 0.747-0.93 0.991-2.33 0.589-0.316 0.973-0.809 1.073-2.25 1e-3 -0.02 2e-3 -0.041 2e-3 -0.062 0-0.649-0.189-1.077-0.356-1.328 0.078-0.504 0.179-1.221 0.232-1.841zm-1.533 3.964c-2e-3 4e-3 -4e-3 8e-3 -6e-3 0.01-8e-3 7e-3 -0.05 0.029-0.084 0.047-0.233 0.123-0.666 0.352-0.796 1.119-0.167 0.992-0.413 1.299-0.652 1.596-0.132 0.164-0.281 0.35-0.397 0.607-0.112 0.184-0.694 1.046-1.786 1.046-1.069 0-1.642-0.796-1.756-0.973-0.119-0.296-0.284-0.5-0.429-0.681-0.238-0.297-0.485-0.604-0.653-1.595-0.129-0.768-0.563-0.996-0.795-1.119-0.034-0.018-0.076-0.04-0.082-0.046-2e-3 -3e-3 -4e-3 -7e-3 -6e-3 -0.011-0.026-0.047-0.114-0.243-0.157-0.823 4e-3 -0.205 0.045-0.299 0.062-0.328 0.258-0.177 0.393-0.511 0.338-0.839-6e-3 -0.037-0.118-0.704-0.205-1.409 1.567 0.511 4.283 1.032 7.365 0.03-0.089 0.711-0.2 1.37-0.202 1.379-0.055 0.327 0.08 0.661 0.337 0.838 0.017 0.029 0.059 0.123 0.062 0.329-0.043 0.579-0.131 0.776-0.157 0.823z"/>
      <path d="m27.723 11.787h-0.187v-2.945l1.089-0.417-6.671-2.771-6.672 2.64 2.851 1.169c-0.068 0.348-0.083 0.669-0.061 0.927 0.039 0.468 0.113 1.009 0.17 1.391-0.173 0.268-0.261 0.607-0.261 1.01 0 0.016 0 0.031 1e-3 0.047 0.073 1.095 0.356 1.475 0.789 1.718 0.181 1.06 0.511 1.485 0.73 1.767 0.078 0.101 0.12 0.156 0.136 0.204 0.011 0.034 0.026 0.068 0.043 0.1 0.03 0.056 0.743 1.381 2.271 1.381 1.532 0 2.26-1.373 2.29-1.431 0.01-0.02 0.02-0.04 0.028-0.061 0.018-0.045 0.06-0.1 0.133-0.193 0.219-0.282 0.55-0.707 0.73-1.767 0.434-0.243 0.717-0.623 0.79-1.718 1e-3 -0.016 2e-3 -0.032 2e-3 -0.048 0-0.492-0.138-0.818-0.261-1.011 0.048-0.32 0.129-0.899 0.17-1.391 0.02-0.245 7e-3 -0.547-0.052-0.874l0.972-0.372v2.644h-0.162c-0.114 0-0.206 0.108-0.206 0.241v2.434c0 0.133 0.092 0.241 0.206 0.241h1.133c0.114 0 0.206-0.108 0.206-0.241v-2.434c-0-0.133-0.092-0.241-0.206-0.241zm-3.056 1.599c-1e-3 2e-3 -2e-3 3e-3 -2e-3 4e-3 -9e-3 6e-3 -0.037 0.021-0.055 0.031-0.162 0.088-0.498 0.271-0.595 0.863-0.122 0.748-0.302 0.979-0.476 1.204-0.097 0.125-0.207 0.266-0.293 0.462-0.083 0.14-0.505 0.782-1.293 0.782-0.771 0-1.186-0.592-1.271-0.727-0.089-0.226-0.21-0.382-0.317-0.519-0.174-0.223-0.353-0.455-0.476-1.202-0.096-0.591-0.433-0.775-0.594-0.863-0.02-0.011-0.046-0.025-0.055-0.031-1e-3 -1e-3 -1e-3 -3e-3 -2e-3 -4e-3 -0.019-0.034-0.082-0.18-0.113-0.616 2e-3 -0.144 0.029-0.213 0.041-0.236 0.193-0.139 0.294-0.398 0.252-0.652-1e-3 -5e-3 -0.048-0.292-0.099-0.665 2.186 0.682 4.115 0.337 5.27-0.026-0.053 0.385-0.102 0.686-0.102 0.691-0.041 0.253 0.059 0.512 0.251 0.651 0.012 0.023 0.039 0.092 0.042 0.237-0.031 0.436-0.095 0.582-0.113 0.616z"/>
    </symbol>
    <symbol id="icon-result" viewBox="0 0 32 32">
      <path d="m4.397 21.478c-0.786-0.215-0.793-1.527-0.068-1.762l12.003-2.998c0.713-0.208 1.342-0.189 1.964-0.052l12.455 2.949c0.832 0.241 0.962 1.383 0.068 1.762l-12.667 4.086c-0.537 0.162-0.811 0.17-1.507-0.062l-12.249-3.923z"/>
      <path d="m10.228 29.695s1.503 2.272 7.337 2.272c5.628 0 7.672-2.147 7.672-2.147v-4.956l-7.107 2.254c-0.538 0.16-0.812 0.166-1.506-0.069l-6.396-2.084v4.729z"/>
      <path d="m29.442 26.726h-0.381v-3.236l-1.288 0.49v2.747h-0.381c-0.206 0-0.373 0.195-0.373 0.436v4.402c0 0.241 0.167 0.436 0.373 0.436h2.049c0.206 0 0.373-0.195 0.373-0.436v-4.402c0-0.241-0.167-0.436-0.373-0.436z"/>
      <path d="m19.191 5.799c0-0.126-0.041-0.23-0.122-0.311s-0.185-0.122-0.311-0.122h-6.887c-0.126 0-0.23 0.041-0.311 0.122s-0.122 0.185-0.122 0.311v1.083c0 0.126 0.041 0.23 0.122 0.311s0.185 0.122 0.311 0.122h6.887c0.126 0 0.23-0.041 0.311-0.122s0.122-0.185 0.122-0.311v-1.083z"/>
      <path d="m19.069 14.722c0.081-0.081 0.122-0.185 0.122-0.311v-1.083c0-0.126-0.041-0.23-0.122-0.311s-0.185-0.122-0.311-0.122h-6.887c-0.126 0-0.23 0.041-0.311 0.122s-0.122 0.185-0.122 0.311v1.083c0 0.126 0.041 0.23 0.122 0.311s0.185 0.122 0.311 0.122h6.887c0.126 0 0.23-0.041 0.311-0.122z"/>
      <path d="m10.034 4.779c0-0.424-0.152-0.791-0.453-1.092s-0.668-0.453-1.092-0.453h-3.124c-0.424 0-0.791 0.152-1.091 0.453s-0.453 0.668-0.453 1.092v3.124c0 0.424 0.152 0.791 0.453 1.091s0.668 0.453 1.092 0.453h3.124c0.424 0 0.791-0.152 1.092-0.453s0.453-0.668 0.453-1.092v-3.124zm-1.406 3.124c0 0.042-0.01 0.066-0.041 0.097s-0.054 0.041-0.097 0.041h-3.124c-0.042 0-0.066-0.01-0.097-0.041s-0.041-0.054-0.041-0.097v-3.124c0-0.042 0.01-0.066 0.041-0.097s0.054-0.041 0.097-0.041h3.124c0.042 0 0.066 0.01 0.097 0.041s0.041 0.054 0.041 0.097v3.124z"/>
      <path d="m10.034 12.307c0-0.424-0.152-0.791-0.453-1.092s-0.668-0.453-1.092-0.453h-3.124c-0.424 0-0.791 0.152-1.091 0.453s-0.453 0.668-0.453 1.092v3.124c0 0.424 0.152 0.791 0.453 1.092s0.668 0.453 1.092 0.453h3.124c0.424 0 0.791-0.152 1.092-0.453s0.453-0.668 0.453-1.092v-3.124zm-1.406 3.124c0 0.042-0.01 0.066-0.041 0.097s-0.054 0.041-0.097 0.041h-3.124c-0.042 0-0.066-0.01-0.097-0.041s-0.041-0.054-0.041-0.097v-3.124c0-0.042 0.01-0.066 0.041-0.097s0.054-0.041 0.097-0.041h3.124c0.042 0 0.066 0.01 0.097 0.041s0.041 0.054 0.041 0.097v3.124z"/>
      <path d="m8.984 26.882v-1.783h-6.983v-23.222h19.051l-1e-3 13.969 1.784 0.428v-10.757h2.005v11.244l1.783 0.432v-12.192c0-0.699-0.575-1.267-1.282-1.267h-2.506v-2.373c-0-0.699-0.575-1.267-1.282-1.267h-20.054c-0.707 0-1.282 0.568-1.282 1.267v24.254c0 0.699 0.575 1.267 1.282 1.267h2.506v2.373c0 0.699 0.575 1.267 1.282 1.267h3.7l-0.012-1.78-3.187-3e-3v-1.857h3.195z"/>
    </symbol>
    <symbol id="icon-delivery" viewBox="0 0 32 32">
      <path d="m18.972 5.517c0-0.126-0.041-0.23-0.122-0.311s-0.185-0.122-0.311-0.122h-6.887c-0.126 0-0.23 0.041-0.311 0.122s-0.122 0.185-0.122 0.311v1.083c0 0.126 0.041 0.23 0.122 0.311s0.185 0.122 0.311 0.122h6.887c0.126 0 0.23-0.041 0.311-0.122s0.122-0.185 0.122-0.311v-1.083z"/>
      <path d="m18.851 14.222c0.081-0.081 0.122-0.185 0.122-0.311v-1.083c0-0.126-0.041-0.23-0.122-0.311s-0.185-0.122-0.311-0.122h-6.887c-0.126 0-0.23 0.041-0.311 0.122s-0.122 0.185-0.122 0.311v1.083c0 0.126 0.041 0.23 0.122 0.311s0.185 0.122 0.311 0.122h6.887c0.126 0 0.23-0.041 0.311-0.122z"/>
      <path d="m11.341 19.87c-0.081 0.081-0.122 0.185-0.122 0.311v1.083c0 0.126 0.041 0.23 0.122 0.311s0.185 0.122 0.311 0.122h4.093l2.003-1.95h-6.096c-0.126 0-0.23 0.041-0.311 0.122z"/>
      <path d="m9.878 4.498c-0-0.424-0.152-0.791-0.453-1.092s-0.668-0.453-1.092-0.453h-3.124c-0.424 0-0.791 0.152-1.091 0.453s-0.453 0.668-0.453 1.092v3.124c0 0.424 0.152 0.791 0.453 1.091s0.668 0.453 1.092 0.453h3.124c0.424 0 0.791-0.152 1.092-0.453s0.453-0.668 0.453-1.092v-3.124zm-1.407 3.124c0 0.042-0.01 0.066-0.041 0.097s-0.054 0.041-0.097 0.041h-3.124c-0.042 0-0.066-0.01-0.097-0.041s-0.041-0.054-0.041-0.097v-3.124c0-0.042 0.01-0.066 0.041-0.097s0.054-0.041 0.097-0.041h3.124c0.042 0 0.066 0.01 0.097 0.041s0.041 0.054 0.041 0.097v3.124z"/>
      <path d="m9.878 11.807c0-0.424-0.152-0.791-0.453-1.092s-0.668-0.453-1.091-0.453h-3.124c-0.424 0-0.791 0.152-1.091 0.453s-0.453 0.668-0.453 1.092v3.124c0 0.424 0.152 0.791 0.453 1.091s0.668 0.453 1.092 0.453h3.124c0.424 0 0.791-0.152 1.091-0.453s0.453-0.668 0.453-1.092v-3.124zm-1.407 3.124c0 0.042-0.01 0.066-0.041 0.097s-0.054 0.041-0.097 0.041h-3.124c-0.042 0-0.066-0.01-0.097-0.041s-0.041-0.054-0.041-0.097v-3.124c0-0.042 0.01-0.066 0.041-0.097s0.054-0.041 0.097-0.041h3.124c0.042 0 0.066 0.01 0.097 0.041s0.041 0.054 0.041 0.097v3.124z"/>
      <path d="m8.334 17.617h-3.124c-0.424 0-0.791 0.152-1.091 0.453s-0.453 0.668-0.453 1.092v3.124c0 0.424 0.152 0.791 0.453 1.091s0.668 0.453 1.092 0.453h3.124c0.424 0 0.791-0.152 1.091-0.453s0.453-0.668 0.453-1.092v-3.124c0-0.424-0.152-0.791-0.453-1.092s-0.668-0.453-1.091-0.453zm0.137 4.669c0 0.043-0.01 0.066-0.041 0.097s-0.054 0.041-0.097 0.041h-3.124c-0.042 0-0.066-0.01-0.097-0.041s-0.041-0.054-0.041-0.097v-3.124c0-0.042 0.01-0.066 0.041-0.097s0.054-0.041 0.097-0.041h3.124c0.042 0 0.066 0.01 0.097 0.041s0.041 0.054 0.041 0.097v3.124z"/>
      <path d="m24.621 28.646h-1.683l-1.912 1.783h4.249s0.561 9e-3 0.845-0.363c0.239-0.313 0.284-0.527 0.284-0.904s0-3.999 0-3.999l-1.783 1.753v1.73z"/>
      <path d="m10.609 26.788 1.809-1.783h-10.636v-23.222h19.051v14.942l1.783-1.785v-9.518h2.005v7.553l1.783-1.773v-6.296c0-0.699-0.575-1.267-1.282-1.267h-2.506v-2.373c-0-0.699-0.575-1.267-1.282-1.267h-20.054c-0.707 0-1.282 0.568-1.282 1.267v24.254c0 0.699 0.575 1.267 1.282 1.267h2.506v2.373c0 0.699 0.575 1.267 1.282 1.267h5.54v-1.783h-5.039v-1.857h5.039z"/>
      <path d="m12.393 26.921v5.101h5.101l10.202-10.202-5.101-5.101-10.202 10.202zm4.451 3.532h-1.312v-1.57h-1.57v-1.312l1.116-1.116 2.882 2.882-1.116 1.116zm6.144-11.649c0.18 0 0.27 0.09 0.27 0.27 0 0.082-0.029 0.151-0.086 0.208l-6.646 6.646c-0.057 0.057-0.127 0.086-0.209 0.086-0.18 0-0.27-0.09-0.27-0.27 0-0.082 0.029-0.151 0.086-0.208l6.646-6.646c0.057-0.057 0.127-0.086 0.208-0.086z"/>
      <path d="m30.517 16.78-2.882-2.869c-0.311-0.311-0.683-0.466-1.116-0.466-0.441 0-0.809 0.155-1.104 0.466l-2.036 2.023 5.101 5.101 2.036-2.035c0.303-0.303 0.454-0.67 0.454-1.104 0-0.425-0.151-0.797-0.454-1.116z"/>
    </symbol>
    <symbol id="icon-folder-open" viewBox="0 0 34 32">
      <path d="m0 23.429v-17.143q0-1.643 1.179-2.821t2.821-1.179h5.714q1.643 0 2.821 1.179t1.179 2.821v0.571h9.714q1.643 0 2.821 1.179t1.179 2.821v2.857h-14.857q-1.679 0-3.518 0.848t-2.929 2.134l-6.107 7.179q0-0.071-0.009-0.223t-0.009-0.223zm1.304 3q0-0.554 0.554-1.179l6-7.071q0.768-0.911 2.152-1.545t2.563-0.634h19.429q0.607 0 1.08 0.232t0.473 0.768q0 0.554-0.554 1.179l-6 7.071q-0.768 0.911-2.152 1.545t-2.563 0.634h-19.429q-0.607 0-1.08-0.232t-0.473-0.768z"/>
    </symbol>
    <symbol id="icon-bin" viewBox="0 0 25 32">
      <path d="m9.143 13.143v10.286q0 0.25-0.161 0.411t-0.411 0.161h-1.143q-0.25 0-0.411-0.161t-0.161-0.411v-10.286q0-0.25 0.161-0.411t0.411-0.161h1.143q0.25 0 0.411 0.161t0.161 0.411zm4.571 0v10.286q0 0.25-0.161 0.411t-0.411 0.161h-1.143q-0.25 0-0.411-0.161t-0.161-0.411v-10.286q0-0.25 0.161-0.411t0.411-0.161h1.143q0.25 0 0.411 0.161t0.161 0.411zm4.572 0v10.286q0 0.25-0.161 0.411t-0.411 0.161h-1.143q-0.25 0-0.411-0.161t-0.161-0.411v-10.286q0-0.25 0.161-0.411t0.411-0.161h1.143q0.25 0 0.411 0.161t0.161 0.411zm2.285 12.928v-16.929h-16v16.929q0 0.393 0.125 0.723t0.259 0.482 0.188 0.152h14.857q0.054 0 0.188-0.152t0.259-0.482 0.125-0.723zm-12-19.214h8l-0.857-2.089q-0.125-0.161-0.304-0.196h-5.661q-0.179 0.036-0.304 0.196zm16.572 0.572v1.143q0 0.25-0.161 0.411t-0.411 0.161h-1.714v16.929q0 1.482-0.839 2.563t-2.018 1.08h-14.857q-1.179 0-2.018-1.045t-0.839-2.527v-17h-1.714q-0.25 0-0.411-0.161t-0.161-0.411v-1.143q0-0.25 0.161-0.411t0.411-0.161h5.518l1.25-2.982q0.268-0.661 0.964-1.125t1.411-0.464h5.714q0.714 0 1.411 0.464t0.964 1.125l1.25 2.982h5.518q0.25 0 0.411 0.161t0.161 0.411z"/>
    </symbol>
    <symbol id="icon-export" viewBox="0 0 32 32">
      <path d="m30.943 21.422-5.094-3.427h-3.141l5.44 4.173h-5.672c-0.163 0-0.309 0.083-0.384 0.213l-1.306 3.576h-9.574l-1.307-3.576c-0.072-0.13-0.221-0.213-0.384-0.213h-5.67l5.442-4.173h-3.142l-5.093 3.427c-0.758 0.453-1.211 1.498-1.008 2.318l0.898 4.918c0.203 0.822 1.106 1.496 2.002 1.496h26.101c0.899 0 1.8-0.674 2.003-1.496l0.898-4.918c0.206-0.822-0.248-1.866-1.006-2.318z"/>
      <path d="m15.93 18.727c-1.148 0.011-2.711-0.414-4.69-1.274-0.049-0.02-0.132-0.056-0.25-0.107s-0.222-0.097-0.313-0.137c-0.09-0.041-0.167-0.085-0.229-0.133-0.118-0.082-0.178-0.178-0.179-0.289-0.001-0.104 0.033-0.185 0.101-0.245s0.155-0.09 0.258-0.09c0.062-0.001 0.154 0.007 0.275 0.023s0.203 0.024 0.244 0.024c0.471 0.03 0.896 0.044 1.276 0.04 0.698-0.006 1.324-0.073 1.876-0.199s1.029-0.298 1.432-0.516 0.749-0.498 1.04-0.839 0.528-0.709 0.711-1.101 0.326-0.854 0.428-1.384 0.172-1.063 0.208-1.599c0.037-0.536 0.052-1.143 0.046-1.821l-0.021-2.323-2.655 0.024c-0.18 0.002-0.336-0.063-0.469-0.193s-0.2-0.285-0.201-0.465c-0.002-0.18 0.063-0.336 0.193-0.469l5.262-5.359c0.13-0.133 0.285-0.2 0.465-0.201s0.336 0.063 0.469 0.193l5.359 5.262c0.133 0.13 0.2 0.285 0.201 0.465s-0.063 0.336-0.193 0.469-0.285 0.2-0.465 0.201l-2.655 0.024 0.021 2.323c0.045 4.93-1.32 7.968-4.097 9.114-0.923 0.375-2.073 0.569-3.449 0.581z"/>
    </symbol>
    <symbol id="icon-import" viewBox="0 0 32 32">
      <path d="m30.943 21.422-5.094-3.427h-3.141l5.44 4.173h-5.672c-0.163 0-0.309 0.083-0.384 0.213l-1.306 3.576h-9.574l-1.307-3.576c-0.072-0.13-0.221-0.213-0.384-0.213h-5.67l5.442-4.173h-3.142l-5.093 3.427c-0.758 0.453-1.211 1.498-1.008 2.318l0.898 4.918c0.203 0.822 1.106 1.496 2.002 1.496h26.101c0.899 0 1.8-0.674 2.003-1.496l0.898-4.918c0.206-0.822-0.248-1.866-1.006-2.318z"/>
      <path d="m21.017 0.094c1.148-0.002 2.708 0.435 4.68 1.31 0.048 0.021 0.131 0.057 0.249 0.109s0.221 0.098 0.311 0.14c0.09 0.041 0.166 0.086 0.228 0.134 0.118 0.083 0.177 0.18 0.177 0.29 0 0.104-0.034 0.185-0.103 0.244s-0.155 0.088-0.259 0.089c-0.062 0-0.154-0.008-0.275-0.026s-0.202-0.026-0.244-0.026c-0.47-0.034-0.896-0.051-1.276-0.05-0.698 0.001-1.324 0.062-1.877 0.184s-1.032 0.29-1.436 0.505-0.753 0.492-1.046 0.831-0.533 0.704-0.719 1.095-0.332 0.851-0.439 1.38-0.18 1.062-0.221 1.598-0.061 1.143-0.06 1.821l0.003 2.324 2.655-0.004c0.18 0 0.335 0.065 0.467 0.196s0.198 0.287 0.198 0.466c0 0.18-0.065 0.335-0.196 0.467l-5.303 5.319c-0.131 0.132-0.287 0.198-0.466 0.198s-0.335-0.065-0.467-0.196l-5.319-5.303c-0.132-0.131-0.198-0.287-0.198-0.466s0.065-0.335 0.196-0.467 0.287-0.197 0.466-0.198l2.655-0.004-0.003-2.324c-0.007-4.931 1.382-7.958 4.167-9.082 0.926-0.368 2.077-0.553 3.453-0.555z"/>
    </symbol>
    <symbol id="icon-copy" viewBox="0 0 32 32">
      <path d="m31.528 7.919c-0.232-0.556-0.509-0.996-0.834-1.32l-5.418-5.418c-0.324-0.324-0.764-0.602-1.32-0.834s-1.065-0.347-1.528-0.347h-11.114c-0.463 0-0.857 0.162-1.181 0.486s-0.486 0.718-0.486 1.181v3.659h-7.777c-0.463 0-0.857 0.162-1.181 0.486s-0.486 0.718-0.486 1.181v23.34c0 0.463 0.162 0.857 0.486 1.181s0.718 0.486 1.181 0.486h18.894c0.463 0 0.857-0.162 1.181-0.486s0.486-0.718 0.486-1.181v-3.659h7.777c0.463 0 0.857-0.162 1.181-0.486s0.486-0.718 0.486-1.181v-15.56c0-0.463-0.116-0.972-0.347-1.528zm-8.544-5.557c0.336 0.116 0.573 0.243 0.712 0.382l5.435 5.435c0.139 0.139 0.266 0.376 0.382 0.712h-6.529v-6.53zm-2.776 27.415h-17.783v-22.228h8.891v7.224c0 0.463 0.162 0.857 0.486 1.181s0.718 0.486 1.181 0.486h7.224v13.337zm-6.668-15.56v-6.529c0.336 0.116 0.573 0.243 0.712 0.382l5.435 5.436c0.139 0.139 0.266 0.376 0.382 0.712h-6.529zm16.112 10.234h-7.221v-9.678c0-0.463-0.116-0.972-0.347-1.528s-0.509-0.996-0.834-1.32l-5.418-5.418c-0.324-0.324-0.764-0.602-1.32-0.834s-1.065-0.347-1.528-0.347h-1.115v-3.103h8.891v7.224c0 0.463 0.162 0.857 0.486 1.181s0.718 0.486 1.181 0.486h7.224v13.337z"/>
    </symbol>
    <symbol id="icon-folder" viewBox="0 0 30 32">
      <path d="m0 23.429v-17.143q0-1.643 1.179-2.821t2.821-1.179h5.714q1.643 0 2.821 1.179t1.179 2.821v0.571h12q1.643 0 2.821 1.179t1.179 2.821v12.571q0 1.643-1.179 2.821t-2.821 1.179h-21.714q-1.643 0-2.821-1.179t-1.179-2.821z"/>
    </symbol>
    <symbol id="icon-save" viewBox="0 0 32 32">
      <path d="m16 5.911h3.363v5.044h-3.363v-5.044z"/>
      <path d="m26.09 2.548h-21.86c-0.455 0-0.85 0.166-1.183 0.499s-0.499 0.727-0.499 1.183v23.541c0 0.455 0.166 0.85 0.499 1.183 0.3 0.3 0.649 0.464 1.048 0.494v0.005l23.809-0.005c0.399-0.03 0.749-0.194 1.048-0.494 0.333-0.333 0.499-0.727 0.499-1.183v-21.86l-3.362-3.362zm-20.18 1.681h16.816v6.726c0 0.473-0.167 0.871-0.5 1.195s-0.726 0.486-1.182 0.486h-13.453c-0.473 0-0.871-0.162-1.195-0.486s-0.486-0.722-0.486-1.195v-6.726zm0.001 22.599v-9.146c0-0.455 0.161-0.85 0.485-1.183s0.722-0.499 1.195-0.499h16.816c0.455 0 0.849 0.166 1.182 0.499s0.5 0.727 0.5 1.183v9.146h-20.179z"/>
      <path d="m24.328 18.957c0 0.224-0.182 0.406-0.406 0.406h-15.924c-0.224 0-0.406-0.182-0.406-0.406v-0.869c0-0.224 0.182-0.406 0.406-0.406h15.924c0.224 0 0.406 0.182 0.406 0.406v0.869z"/>
      <path d="m24.328 24.002c0 0.224-0.182 0.406-0.406 0.406h-15.924c-0.224 0-0.406-0.182-0.406-0.406v-0.869c0-0.224 0.182-0.406 0.406-0.406h15.924c0.224 0 0.406 0.182 0.406 0.406v0.869z"/>
    </symbol>
    <symbol id="icon-clipboard" viewBox="0 0 32 32">
      <path d="m24 32.041h-18c-1.105 0-2-0.893-2-1.996v-24.097c0-1.102 0.895-1.995 2-1.995h5v2.079h-4c-0.552 0-1 0.446-1 0.998v22.017c0 0.553 0.448 0.998 1 0.998h16c0.553 0 1-0.445 1-0.998v-22.017c0-0.552-0.447-0.998-1-0.998h-4v-2.079h5c1.104 0 2 0.894 2 1.995v24.097c0 1.103-0.896 1.996-2 1.996zm-13-20.022h11v0.998h-11v-0.998zm0 2.994h11v0.998h-11v-0.998zm0 2.995h11v0.998h-11v-0.998zm0 2.994h11v0.998h-11v-0.998zm11 6.984h-11v-0.996h11v0.996zm-11-3.99h11v0.998h-11v-0.998zm-3-11.997h1v0.998h-1v-0.998zm0 2.994h1v0.998h-1v-0.998zm0 2.993h1v0.998h-1v-0.998zm0 2.994h1v0.998h-1v-0.998zm1 6.987h-1v-0.998h1v0.998zm-1-3.992h1v0.998h-1v-0.998zm13-16.884c0.553 0 1 0.447 1 0.999v1.933h-14v-1.933c0-0.551 0.447-0.999 1-0.999h3s0.012-1.419 0.012-3.041c0-1.684 1.3-3.092 2.988-3.092s3.033 1.48 3.033 3.102c0 1.747-0.033 3.031-0.033 3.031h3zm-6-3.138c-0.553 0-1 0.446-1 0.997 0 0.552 0.447 0.998 1 0.998s1-0.446 1-0.998c0-0.551-0.447-0.997-1-0.997z"/>
    </symbol>
    <symbol id="icon-right" viewBox="0 0 11 32">
      <path d="m10.625 17.143q0 0.232-0.179 0.411l-8.321 8.321q-0.179 0.179-0.411 0.179t-0.411-0.179l-0.893-0.893q-0.179-0.179-0.179-0.411t0.179-0.411l7.018-7.018-7.018-7.018q-0.179-0.179-0.179-0.411t0.179-0.411l0.893-0.893q0.179-0.179 0.411-0.179t0.411 0.179l8.321 8.321q0.179 0.179 0.179 0.411z"/>
    </symbol>
    <symbol id="icon-play" viewBox="0 0 25 32">
      <path d="m24.714 16.554-23.714 13.179q-0.411 0.232-0.705 0.054t-0.295-0.643v-26.286q0-0.464 0.295-0.643t0.705 0.054l23.714 13.179q0.411 0.232 0.411 0.554t-0.411 0.554z"/>
    </symbol>
    <symbol id="action-bg" viewBox="0 0 212.2 159.01">
      <rect width="16.546833" height="15.612866" x="36.675896" y="86.09433" rx=".25" ry=".25" />
    </symbol>
    <symbol id="full-cover">
      <rect width="212.20999" height="159.00989" x="4.7980002e-006" y="-2.6611001e-006" />
    </symbol>
  </defs>
  <g class="white-bg">
    <use style="fill:#fff" xlink:href="#full-cover"/>
  </g>
  <g class="background" transform="translate(0,21.696259)">
    <g class="sidebar">
      <g transform="translate(.47503 -20.87)">
        <rect style="fill:#f3f1ef" rx=".5" ry=".5" height="132.39" width="74.069" y="21.002" x="-.37504"/>
      </g>
      <g transform="translate(.47503 -20.87)">
        <rect style="fill:#cdcdcd" rx=".000012008" ry=".000012008" height="4.1254" width="57.755" y="100.13" x="4.1254"/>
        <use style="stroke:#333;" xlink:href="#icon-right" transform="matrix(.022549 0 0 .022549 67.685 100.29)"/>
        <use style="stroke:#333;" xlink:href="#icon-right" transform="matrix(-.022549 0 0 -.022549 4.0251 104.21)"/>
      </g>
      <g transform="translate(.47503 -20.87)">
        <rect style="fill:#fff" height="79.132" width="72.569" y="21.002" x="-.0000080744"/>
      </g>
      <g transform="translate(.47503 -20.87)" class="grey-icon">
        <use xlink:href="#icon-play" transform="matrix(.0088807 0 0 .013926 6.5323 37.13)"/>
        <use xlink:href="#icon-play" transform="matrix(0 .0088807 -.013926 0 4.6701 31.824)"/>
      </g>
      <g transform="translate(.47503 -20.87)">
        <rect style="fill:#f3f1ef" rx=".5" ry=".5" height="57.755" width="132.57" y="46.692" x="78.945"/>
      </g>
      <g transform="translate(.47503 -20.87)">
        <rect style="stroke-linejoin:round;stroke:#ddd;stroke-width:.2;fill:#266d9c" rx=".5" ry=".5" height="6.9381" width="22.127" y="89.821" x="180.39"/>
      </g>
    </g>
    <g class="tree">
      <rect style="fill:#e4ecef;stroke:#266d9c" width="31.197247" height="4.2006068" x="9.5398245" y="19.822212" rx=".25" ry=".25" />
      <g transform="translate(.47503 -20.87)" class="blue-icon">
        <use xlink:href="#icon-item" transform="matrix(.024510 0 0 .024510 8.4225 41.054)"/>
        <use xlink:href="#icon-item" transform="matrix(.024510 0 0 .024510 8.453 46.335)"/>
        <use xlink:href="#icon-item" transform="matrix(.024510 0 0 .024510 8.5467 51.679)"/>
        <use xlink:href="#icon-item" transform="matrix(.024510 0 0 .024510 8.453 57.023)"/>
        <use xlink:href="#icon-item" transform="matrix(.024510 0 0 .024510 8.453 62.274)"/>
        <use xlink:href="#icon-item" transform="matrix(.024510 0 0 .024510 8.453 67.524)"/>
        <use xlink:href="#icon-item" transform="matrix(.024510 0 0 .024510 8.453 72.868)"/>
        <use xlink:href="#icon-item" transform="matrix(.024510 0 0 .024510 8.453 78.213)"/>
        <use xlink:href="#icon-item" transform="matrix(.024510 0 0 .024510 8.453 83.463)"/>
        <use xlink:href="#icon-item" transform="matrix(.024510 0 0 .024510 8.453 88.807)"/>
        <use xlink:href="#icon-item" transform="matrix(.024510 0 0 .024510 8.453 94.058)"/>
      </g>
      <g transform="translate(.47503 -20.87)" class="yellow-icon">
        <use xlink:href="#icon-folder-open" transform="matrix(.024073 0 0 .024447 5.3605 30.636)"/>
        <use xlink:href="#icon-folder" transform="matrix(.026233 0 0 .026233 8.3287 35.866)"/>
      </g>
      <text y="12.767632" x="10.561834">
        <tspan x="10.561834" y="12.767632">Item</tspan>
      </text>
      <text y="17.687174" x="13.974808">
        <tspan x="13.974808" y="17.687174">QTI Example Test</tspan>
        <tspan x="13.974808" y="22.980812">Associate Things</tspan>
        <tspan x="13.974808" y="28.274450">Characters and Plays</tspan>
        <tspan x="13.974808" y="33.568089">Chocolate Factory</tspan>
        <tspan x="13.974808" y="38.861729">Elections in the United States, 2004</tspan>
        <tspan x="13.974808" y="44.155365">Identifying Sentence Errors</tspan>
        <tspan x="13.974808" y="49.449005">Modal Feedback</tspan>
        <tspan x="13.974808" y="54.742641">Periods of History</tspan>
        <tspan x="13.974808" y="60.036282">Planets and moons</tspan>
        <tspan x="13.974808" y="65.329918">Richard III (Take 2)</tspan>
        <tspan x="13.974808" y="70.623558">The Space Shuttle, 30 years of adventu</tspan>
        <tspan x="13.974808" y="75.917198">UK Airports (Take 1)</tspan>
      </text>
    </g>
    <g class="actions">
      <g class="action-bg">
        <use transform="matrix(1.0016006,0,0,0.98608691,-34.944857,1.2885228)" xlink:href="#action-bg" />
        <use transform="matrix(1.0016006,0,0,0.98608692,-17.429705,1.2884304)" xlink:href="#action-bg" />
        <use transform="matrix(1.0016006,0,0,0.98608692,-0.05870524,1.2884304)" xlink:href="#action-bg" />
        <use transform="matrix(1.0016006,0,0,0.98608692,17.310972,1.2884304)" xlink:href="#action-bg" />
        <use transform="matrix(1.0016006,0,0,0.98608692,-34.944778,17.78436)" xlink:href="#action-bg" />
        <use transform="matrix(1.0016006,0,0,0.98608692,-17.429668,17.784368)" xlink:href="#action-bg" />
      </g>
      <g transform="translate(.47503 -20.87)" class="blue-icon">
        <use xlink:href="#icon-folder-open" transform="matrix(.027856 0 0 .027856 6.9664 111.23)"/>
        <use xlink:href="#icon-bin" transform="matrix(.029336 0 0 .029336 24.372 111.02)"/>
        <use xlink:href="#icon-export" transform="matrix(.027950 0 0 .027950 59.509 111.11)"/>
        <use xlink:href="#icon-import" transform="matrix(.028945 0 0 .028945 41.856 111.21)"/>
        <use xlink:href="#icon-item" transform="matrix(.028210 0 0 .028210 24.373 127.28)"/>
        <use xlink:href="#icon-copy" transform="matrix(.028145 0 0 .028145 6.9989 127.2)"/>
      </g>
      <text class="actions" y="98.303864" x="3.6478806">
        <tspan x="3.65" y="98.304">New class</tspan>
        <tspan x="23.25" y="98.304">Delete</tspan>
        <tspan x="40.4" y="98.304">Import</tspan>
        <tspan x="58.2" y="98.304">Export</tspan>
        <tspan x="3.8" y="114.55">Duplicate</tspan>
        <tspan x="21.5" y="114.55">New item</tspan>
      </text>
    </g>
    <g class="form">
      <g transform="translate(.47503 -20.87)" class="fields">
        <rect style="fill:#fff" rx=".5" ry=".5" height="6.56" width="75.194" y="55.13" x="127.7"/>
        <rect style="fill:#faf9f8" rx=".51103" ry=".49984" height="6.5578" width="69.379" y="64.695" x="127.7"/>
        <rect style="fill:#e1e2e3" rx=".5" ry=".5" height="6.56" width="7.1256" y="64.693" x="195.77"/>
        <use style="opacity:.74" xlink:href="#icon-clipboard" transform="matrix(.030450 0 0 .030450 196.37 65.462)"/>
      </g>
      <text y="21.515757" x="79.634056">
        <tspan x="79.634056" style="font-size:5.457px;" y="21.515757">Edit Item</tspan>
      </text>
      <text class="labels" y="37.861553" x="87.914719">
        <tspan x="87.91" y="37.86">Label</tspan>
        <tspan x="87.91" y="47.72">Resource Identifier</tspan>
        <tspan x="87.91" y="57.6">Item Model</tspan>
        <tspan x="130" y="57.6">QTl</tspan>
      </text>
      <g class="values">
        <text y="38.941513" x="129.47821">
          <tspan x="129.47821" y="38.941513">Associate Things</tspan>
        </text>
        <text y="48.244011" x="129.37376">
          <tspan x="129.37376" style="fill:#808080" y="48.244011">https://tao.demo/tao.rdf#i1501556793</tspan>
        </text>
      </g>
      <g class="save">
        <g transform="translate(.47503 -20.87)">
          <use style="opacity:.424;" xlink:href="#icon-save" transform="matrix(.023327 0 0 .023327 183.31 91.502)"/>
          <use style="fill:#ffffff" xlink:href="#icon-save" transform="matrix(.023327 0 0 .023327 183.17 91.387)"/>
        </g>
        <text y="73.733162" x="191.31975">
          <tspan x="191.31975" style="opacity:.387" y="73.733162">Save</tspan>
        </text>
        <text y="73.678825" x="191.19014">
          <tspan x="191.19014" style="fill:#ffffff" y="73.678825">Save</tspan>
        </text>
      </g>
    </g>
  </g>
  <g class="header-footer" id="header">
    <rect class="svg-dark-bar" x="4.798e-6" y="-2.6611e-6" width="212.2" height="16.896"/>
  </g>
  <g class="header-footer" id="footer">
    <rect class="svg-dark-bar" x="4.816e-6" y="150.19" width="212.21" height="8.8199"/>
    <text x="2.5390527" y="156.14143">
      <tspan class="svg-footer-fg" x="2.5390527" y="156.14143" style="font-size:2.9104px;line-height:1.25">© 2013 - 2017 · 3.2.0 · Open Assessment Technologies S.A. · All rights reserved</tspan>
    </text>
    <rect class="svg-footer-fg" x="31.28" y="156.49" width="45.125" height=".21093"/>
  </g>
  <g transform="matrix(.16066 0 0 -.16066 8.885 14.284)">
    <g transform="scale(.1)">
      <path d="m541.18 290.34c8.398-23.106-3.496-48.664-26.629-57.063-23.078-8.406-48.664 3.504-57.063 26.629-8.418 23.11 3.469 48.645 26.582 57.035 23.145 8.426 48.692-3.507 57.11-26.601" style="fill:#baad9f"/>
      <path d="m549.31 471c-10.441-22.324-36.925-31.973-59.21-21.551-22.313 10.352-31.961 36.903-21.543 59.18 10.382 22.293 36.875 31.941 59.171 21.551 22.293-10.43 31.942-36.903 21.582-59.18" style="fill:#baad9f"/>
      <path d="m682.56 593.09c-23.105-8.367-48.66 3.527-57.097 26.652-8.41 23.094 3.523 48.633 26.648 57.071 23.086 8.406 48.672-3.508 57.051-26.602 8.438-23.137-3.484-48.684-26.602-57.121" style="fill:#baad9f"/>
      <path d="m863.18 585.23c-22.297 10.39-31.953 36.902-21.563 59.199 10.41 22.293 36.895 31.922 59.207 21.531 22.285-10.41 31.926-36.895 21.563-59.172-10.418-22.293-36.914-31.969-59.207-21.558" style="fill:#baad9f"/>
      <path d="m985.3 451.9c-8.406 23.164 3.496 48.691 26.633 57.128 23.12 8.399 48.67-3.476 57.06-26.648 8.44-23.117-3.48-48.664-26.58-57.043-23.13-8.406-48.676 3.469-57.113 26.563" style="fill:#baad9f"/>
      <path d="m663.51 157.11c22.332-10.437 31.961-36.933 21.57-59.238-10.398-22.273-36.914-31.953-59.207-21.492-22.316 10.391-31.926 36.863-21.535 59.168 10.383 22.277 36.906 31.953 59.172 21.562" style="fill:#baad9f"/>
      <path d="m844.12 149.18c23.125 8.437 48.691-3.477 57.129-26.621 8.43-23.106-3.555-48.661-26.668-57.071-23.106-8.3985-48.664 3.4765-57.043 26.59-8.438 23.149 3.477 48.715 26.582 57.102" style="fill:#baad9f"/>
      <path d="m977.41 271.33c10.403 22.317 36.894 31.945 59.234 21.555 22.24-10.391 31.91-36.887 21.5-59.192-10.39-22.324-36.89-31.953-59.152-21.562-22.351 10.391-31.972 36.926-21.582 59.199" style="fill:#baad9f"/>
      <path d="m621.29 319.41c5.391-14.754-2.227-31.133-17.039-36.512-14.777-5.363-31.133 2.246-36.524 17.032-5.382 14.804 2.254 31.179 17.032 36.55 14.773 5.391 31.16-2.234 36.531-17.07" style="fill:#baad9f"/>
      <path d="m626.35 435.06c-6.661-14.278-23.633-20.469-37.891-13.817-14.258 6.668-20.449 23.621-13.789 37.899 6.68 14.25 23.586 20.41 37.871 13.761 14.277-6.652 20.469-23.593 13.809-37.843" style="fill:#baad9f"/>
      <path d="m711.68 513.23c-14.805-5.402-31.153 2.215-36.574 16.993-5.379 14.824 2.238 31.171 17.05 36.55 14.805 5.383 31.164-2.246 36.536-17.031 5.378-14.824-2.219-31.141-17.012-36.512" style="fill:#baad9f"/>
      <path d="m827.24 508.14c-14.277 6.652-20.449 23.605-13.781 37.921 6.652 14.219 23.594 20.438 37.863 13.719 14.278-6.59 20.457-23.594 13.789-37.84-6.66-14.277-23.613-20.429-37.871-13.8" style="fill:#baad9f"/>
      <path d="m905.43 422.85c-5.418 14.804 2.187 31.183 16.992 36.554 14.797 5.391 31.144-2.238 36.535-17.07 5.41-14.785-2.219-31.133-16.992-36.516-14.836-5.379-31.164 2.246-36.535 17.032" style="fill:#baad9f"/>
      <path d="m699.47 234.14c14.285-6.649 20.449-23.606 13.777-37.911-6.641-14.246-23.594-20.418-37.879-13.75-14.269 6.661-20.441 23.594-13.762 37.852 6.622 14.297 23.575 20.488 37.864 13.809" style="fill:#baad9f"/>
      <path d="m815.04 229.1c14.824 5.363 31.152-2.266 36.562-17.059 5.403-14.766-2.234-31.145-17.07-36.535-14.765-5.36-31.133 2.258-36.492 17.051-5.41 14.796 2.215 31.144 17 36.543" style="fill:#baad9f"/>
      <path d="m900.35 307.28c6.648 14.278 23.601 20.426 37.898 13.778 14.25-6.68 20.422-23.582 13.77-37.871-6.661-14.305-23.614-20.469-37.871-13.817-14.266 6.649-20.457 23.602-13.797 37.91" style="fill:#baad9f"/>
      <path d="m672.44 338.07c3.43-9.5-1.453-19.968-10.906-23.398-9.484-3.445-19.941 1.406-23.391 10.879-3.457 9.473 1.446 19.98 10.899 23.437 9.492 3.418 19.941-1.464 23.398-10.918" style="fill:#baad9f"/>
      <path d="m675.69 412.07c-4.258-9.168-15.137-13.105-24.297-8.886-9.102 4.308-13.047 15.128-8.77 24.277 4.27 9.141 15.098 13.059 24.25 8.809 9.121-4.247 13.074-15.118 8.817-24.2" style="fill:#baad9f"/>
      <path d="m730.23 462.06c-9.425-3.429-19.902 1.465-23.371 10.926-3.418 9.473 1.457 19.922 10.938 23.371 9.445 3.418 19.941-1.449 23.371-10.918 3.445-9.453-1.438-19.914-10.938-23.379" style="fill:#baad9f"/>
      <path d="m804.24 458.8c-9.14 4.285-13.086 15.137-8.828 24.297 4.27 9.109 15.117 13.054 24.238 8.836 9.153-4.278 13.067-15.118 8.821-24.278-4.231-9.129-15.09-13.094-24.231-8.855" style="fill:#baad9f"/>
      <path d="m854.27 404.23c-3.468 9.473 1.407 19.942 10.899 23.418 9.461 3.407 19.91-1.457 23.379-10.949 3.465-9.472-1.446-19.922-10.899-23.371-9.464-3.465-19.933 1.457-23.379 10.902" style="fill:#baad9f"/>
      <path d="m722.48 283.45c9.14-4.269 13.074-15.109 8.816-24.269-4.258-9.09-15.117-13.067-24.246-8.797-9.152 4.265-13.078 15.137-8.82 24.258 4.238 9.121 15.097 13.093 24.25 8.808" style="fill:#baad9f"/>
      <path d="m796.45 280.19c9.453 3.484 19.922-1.379 23.352-10.84 3.496-9.473-1.418-19.953-10.899-23.41-9.425-3.446-19.902 1.445-23.34 10.898-3.468 9.492 1.426 19.961 10.887 23.352" style="fill:#baad9f"/>
      <path d="m851.04 330.27c4.238 9.122 15.098 13.079 24.238 8.809 9.133-4.238 13.106-15.129 8.821-24.227-4.239-9.171-15.098-13.125-24.239-8.847-9.152 4.258-13.105 15.105-8.82 24.265" style="fill:#baad9f"/>
      <path d="m705.17 349.98c2.195-6.062-0.918-12.781-6.984-15-6.063-2.175-12.774 0.969-14.961 7.032-2.215 6.015 0.929 12.715 6.992 14.941 6.027 2.18 12.754-0.957 14.953-6.973" style="fill:#baad9f"/>
      <path d="m707.25 397.32c-2.703-5.84-9.688-8.379-15.527-5.672-5.86 2.735-8.387 9.676-5.625 15.555 2.695 5.84 9.648 8.371 15.488 5.625 5.859-2.715 8.379-9.668 5.664-15.508" style="fill:#baad9f"/>
      <path d="m742.18 429.33c-6.067-2.18-12.793 0.914-14.954 7-2.234 6.055 0.879 12.754 6.973 14.953 6.055 2.227 12.746-0.949 14.961-6.984 2.207-6.043-0.926-12.742-6.98-14.969" style="fill:#baad9f"/>
      <path d="m789.55 427.26c-5.871 2.734-8.41 9.676-5.664 15.547 2.703 5.847 9.648 8.367 15.508 5.644 5.839-2.746 8.347-9.679 5.625-15.547-2.688-5.832-9.649-8.351-15.469-5.644" style="fill:#baad9f"/>
      <path d="m821.54 392.34c-2.187 6.062 0.926 12.762 6.973 14.949 6.074 2.219 12.773-0.898 14.949-6.961 2.207-6.105-0.867-12.765-6.941-14.972-6.106-2.215-12.766 0.898-14.981 6.984" style="fill:#baad9f"/>
      <path d="m737.21 315.02c5.82-2.715 8.332-9.637 5.644-15.516-2.703-5.844-9.675-8.371-15.535-5.637-5.82 2.707-8.371 9.68-5.675 15.508 2.753 5.852 9.707 8.379 15.566 5.645" style="fill:#baad9f"/>
      <path d="m784.52 312.94c6.074 2.227 12.773-0.879 14.972-6.964 2.215-6.067-0.918-12.743-6.972-14.93-6.067-2.238-12.766 0.887-14.961 6.933-2.207 6.043 0.925 12.774 6.961 14.961" style="fill:#baad9f"/>
      <path d="m819.47 344.96c2.715 5.859 9.656 8.379 15.496 5.656 5.89-2.707 8.371-9.679 5.644-15.488-2.683-5.859-9.668-8.399-15.496-5.656-5.84 2.726-8.379 9.629-5.644 15.488" style="fill:#baad9f"/>
      <path d="m880.78 692.9c-38.105 0-66.953-33.789-66.953-68.937 0-37.442 29.191-68.926 68.945-68.926 36.778 0 68.293 31.145 68.293 67.922 0 38.445-30.488 69.941-70.285 69.941zm0.656-176.31c-57.011 0-107.68 47.031-107.68 106.37 0 57.019 46.035 108.39 105.7 108.39 66.269 0 111.36-47.403 111.36-108.05 0-57-46.394-106.71-109.38-106.71" style="fill:#baad9f"/>
      <path d="m856.92 176.27c-38.152 0-66.98-33.79-66.98-68.907 0-37.461 29.167-68.914 68.964-68.914 36.778 0 68.262 31.113 68.262 67.918 0 38.449-30.508 69.903-70.246 69.903zm0.637-176.27c-57.012 0-107.71 47.051-107.71 106.37 0 56.985 46.066 108.39 105.74 108.39 66.262 0 111.34-47.422 111.34-108.08 0-56.992-46.387-106.68-109.38-106.68" style="fill:#baad9f"/>
      <path d="m1134 522.77v-12.825h6c6.45 0 9.48 1.614 9.48 6.153 0 4.785-3.03 6.672-9.67 6.672zm22.8-5.879c0-5.539-3.16-9.328-8.58-10.489l8.38-17.687h-7.94l-7.63 16.574h-7.03v-16.574h-7.11v38.848h14.2c10.53 0 15.71-3.672 15.71-10.672zm4.01 11.504c-5.51 5.82-12.59 8.847-20.55 8.847-7.75 0-14.85-2.961-20.09-8.476-5.64-5.899-8.78-13.489-8.78-21.321 0-7.781 3.05-15.097 8.51-20.808 5.44-5.695 12.7-8.867 20.1-8.867 7.83 0 14.92 3.035 20.65 8.769 5.44 5.418 8.39 12.735 8.39 20.645 0 8.269-2.86 15.683-8.23 21.211zm3.07 3.144c6.09-6.398 9.57-14.941 9.57-24.094 0-9.414-3.39-17.761-9.69-24.062-6.52-6.543-14.91-10.156-23.6-10.156-8.82 0-17.04 3.613-23.42 10.273-6.27 6.524-9.68 14.934-9.68 23.945 0 9.036 3.62 17.813 10.06 24.551 6.1 6.375 14.09 9.719 23.04 9.719 9.06 0 17.35-3.535 23.72-10.176" style="fill:#baad9f"/>
      <path d="m565.8 273.89v0.781c0 36.348-27.735 66.457-67.07 66.457-40.176 0-65.84-29.727-65.84-65.684v-0.773c0-35.977 27.711-66.434 66.648-66.434 40.598 0 66.262 30.086 66.262 65.653zm-174.17 0v0.781c0 59.035 45.93 107.9 107.9 107.9 61.973 0 107.52-48.097 107.52-107.13v-0.773c0-58.621-45.93-107.5-108.27-107.5-61.625 0-107.15 48.098-107.15 106.72" style="fill:#bf1b2c"/>
      <path d="m306.76 258.26c-12.098 4.699-28.907 8.203-47.289 8.203-29.703 0-47.278-12.156-47.278-32.02v-0.8c0-19.563 17.575-30.5 39.867-30.5 31.278 0 54.7 17.578 54.7 43.378zm2.48-86.367v25.382c-14.082-16.808-35.586-29.707-66.844-29.707-39.093 0-73.472 22.274-73.472 63.731v0.777c0 45.734 35.57 67.602 83.625 67.602 25.023 0 41.058-3.52 57.054-8.586v3.886c0 28.528-17.972 44.141-50.789 44.141-23.05 0-40.254-5.008-59.007-12.871l-12.918 37.922c22.683 10.156 44.961 17.176 78.57 17.176 60.961 0 90.695-32.02 90.695-87.137v-122.32h-46.914" style="fill:#bf1b2c"/>
      <path d="m26.191 228.93v108.65h-26.191v40.664h26.191v56.668h47.316v-56.668h55.484v-40.664h-55.484v-101.22c0-18.359 9.3672-25.781 25.375-25.781 10.57 0 19.949 2.363 29.305 7.012v-38.672c-11.696-6.652-24.981-10.559-42.602-10.559-34.766 0-59.394 15.286-59.394 60.567" style="fill:#bf1b2c"/>
    </g>
  </g>
  <g id="menu">
    <g id="items" class="active menu-item">
      <rect class="svg-menu-active-bg" x="37.449" y="-.010744" width="21.3" height="16.838"/>
      <text x="43.183624" y="13.29764">
        <tspan class="svg-menu-active-fg" x="43.183624" y="13.29764">Items</tspan>
      </text>
      <use class="svg-menu-fg svg-menu-active-fg" transform="matrix(.033411 0 0 .033411 43.84 3.9787)" xlink:href="#icon-item"/>
    </g>
    <g id="tests" transform="matrix(.99868 0 0 1 .077895 0)" class="menu-item svg-menu-bg">
      <rect x="58.789" y="-.010744" width="20" height="16.838"/>
      <text x="64.616104" y="13.308514">
        <tspan class="svg-menu-fg" x="64.616104" y="13.308514">Tests</tspan>
      </text>
      <use class="svg-menu-fg" transform="matrix(.03341 0 0 .03341 65.021 3.9679)" xlink:href="#icon-test"/>
    </g>
    <g id="test-takers" class="menu-item svg-menu-bg">
      <rect x="78.795" y="-.010744" width="25.1" height="16.838"/>
      <text x="83.009048" y="13.340284">
        <tspan class="svg-menu-fg" x="83.009048" y="13.340284">Test-takers</tspan>
      </text>
      <use class="svg-menu-fg" transform="matrix(.033829 0 0 .033829 87.602 4.0184)" xlink:href="#icon-test-taker"/>
    </g>
    <g id="groups" class="menu-item svg-menu-bg">
      <rect transform="scale(1,-1)" x="103.98" y="-16.827" width="20.5" height="16.838"/>
      <text x="108.64506" y="13.31794">
        <tspan class="svg-menu-fg" x="108.64506" y="13.31794">Groups</tspan>
      </text>
      <use class="svg-menu-fg" transform="matrix(.033347 0 0 .033347 110.37 3.9852)" xlink:href="#icon-test-takers"/>
    </g>
    <g id="deliveries" class="menu-item svg-menu-bg">
      <rect x="124.35" y="-.010744" width="23" height="16.838"/>
      <text x="128.40358" y="13.305184">
        <tspan class="svg-menu-fg" x="128.40358" y="13.305184">Deliveries</tspan>
      </text>
      <use class="svg-menu-fg" id="delivery-icon" transform="matrix(.036932 0 0 .035265 131.94 3.954)" xlink:href="#icon-delivery"/>
    </g>
    <g id="results" class="menu-item svg-menu-bg">
      <rect id="result-bg" x="147.2" y="-.010744" width="21" height="16.838"/>
      <text id="result-text" x="151.92529" y="13.269874">
        <tspan class="svg-menu-fg" x="151.92529" y="13.269874">Results</tspan>
      </text>
      <use class="svg-menu-fg" id="result-icon" transform="matrix(.033184 0 0 .033184 153.94 4.053)" xlink:href="#icon-result"/>
    </g>
  </g>
  <g id="action-bars">
    <rect class="svg-action-bar" height="9.2604" width="73.5" y="17.198" x="0"/>
    <rect class="svg-action-bar" height="9.2604" width="138.38" y="17.198" x="73.819"/>
    <g class="top-action-item active">
      <rect x="76.307" y="18.61" width="31.121" height="6.3168" rx=".5" ry=".5"/>
      <use class="svg-action-fg" transform="matrix(.023477 0 0 .023477 79.395 20.016)" width="100%" height="100%" xlink:href="#icon-edit"/>
      <text x="87.087563" y="23.199392">
        <tspan class="svg-action-fg" x="87.087563" y="23.199392">Properties</tspan>
      </text>
    </g>
    <g class="top-action-item">
      <rect x="108.14" y="18.61" width="27.213" height="6.3253" rx=".5" ry=".5"/>
      <use class="svg-action-fg" transform="matrix(.02177 0 0 .02177 111.49 20.204)" width="100%" height="100%" xlink:href="#icon-preview"/>
      <text x="119.15513" y="23.127571">
        <tspan class="svg-action-fg" x="119.15513" y="23.127571">Preview</tspan>
      </text>
    </g>
    <g class="top-action-item">
      <rect x="136.02" y="18.61" width="30.574" height="6.3179" rx=".5" ry=".5" />
      <use class="svg-action-fg" transform="matrix(.02258 0 0 .02258 139.66 20.149)" width="100%" height="100%" xlink:href="#icon-edit"/>
      <text x="147.34578" y="23.098568">
        <tspan class="svg-action-fg" x="147.34578" y="23.098568">Authoring</tspan>
      </text>
    </g>
    <g class="top-action-item">
      <rect x="167.25" y="18.61" width="29.818" height="6.3196" rx=".5" ry=".5"/>
      <use class="svg-action-fg" transform="matrix(.023096 0 0 .023096 170.83 20.037)" width="100%" height="100%" xlink:href="#icon-translate"/>
      <text x="178.63875" y="23.043261">
        <tspan class="svg-action-fg" x="178.63875" y="23.043261">Translate</tspan>
      </text>
    </g>
  </g>
  <script xlink:href="./theme-preview.js" />
</svg>